Pacifico-Light.ufo
<glyph name="period" format="1">
  <advance width="185"/>
  <unicode hex="002E"/>
  <outline>
    <contour>
      <point x="93" y="0" type="curve" smooth="yes"/>
      <point x="124" y="0"/>
      <point x="141" y="19"/>
      <point x="141" y="49" type="curve" smooth="yes"/>
      <point x="141" y="76"/>
      <point x="126" y="89"/>
      <point x="99" y="89" type="curve" smooth="yes"/>
      <point x="68" y="89"/>
      <point x="52" y="71"/>
      <point x="52" y="41" type="curve" smooth="yes"/>
      <point x="52" y="13"/>
      <point x="65" y="0"/>
    </contour>
  </outline>
</glyph>
<glyph name="slash" format="1">
  <advance width="426"/>
  <unicode hex="002F"/>
  <outline>
    <contour>
      <point x="134" y="17" type="curve" smooth="yes"/>
      <point x="162" y="79"/>
      <point x="296" y="385"/>
      <point x="374" y="559" type="curve" smooth="yes"/>
      <point x="388" y="589"/>
      <point x="352" y="615"/>
      <point x="332" y="572" type="curve" smooth="yes"/>
      <point x="260" y="416"/>
      <point x="125" y="106"/>
      <point x="93" y="35" type="curve" smooth="yes"/>
      <point x="70" y="-14"/>
      <point x="113" y="-30"/>
    </contour>
  </outline>
</glyph>
<glyph name="four" format="1">
  <advance width="417"/>
  <unicode hex="0034"/>
  <outline>
    <contour>
      <point x="228" y="-19" type="curve" smooth="yes"/>
      <point x="235" y="-19"/>
      <point x="245" y="-13"/>
      <point x="248" y="3" type="curve" smooth="yes"/>
      <point x="264" y="83" type="line"/>
      <point x="283" y="83"/>
      <point x="324" y="81"/>
      <point x="345" y="82" type="curve" smooth="yes"/>
      <point x="368" y="83"/>
      <point x="372" y="125"/>
      <point x="358" y="124" type="curve" smooth="yes"/>
      <point x="348" y="123"/>
      <point x="333" y="122"/>
      <point x="275" y="122" type="curve"/>
      <point x="280" y="146"/>
      <point x="309" y="273"/>
      <point x="318" y="311" type="curve" smooth="yes"/>
      <point x="320" y="321"/>
      <point x="314" y="329"/>
      <point x="298" y="329" type="curve" smooth="yes"/>
      <point x="278" y="329"/>
      <point x="272" y="320"/>
      <point x="269" y="306" type="curve" smooth="yes"/>
      <point x="261" y="278"/>
      <point x="230" y="142"/>
      <point x="229" y="132" type="curve"/>
      <point x="203" y="115"/>
      <point x="123" y="124"/>
      <point x="113" y="124" type="curve"/>
      <point x="140" y="202"/>
      <point x="203" y="386"/>
      <point x="227" y="464" type="curve" smooth="yes"/>
      <point x="233" y="484"/>
      <point x="193" y="503"/>
      <point x="180" y="465" type="curve" smooth="yes"/>
      <point x="151" y="388"/>
      <point x="89" y="202"/>
      <point x="64" y="126" type="curve"/>
      <point x="50" y="88"/>
      <point x="57" y="79"/>
      <point x="79" y="79" type="curve" smooth="yes"/>
      <point x="129" y="79"/>
      <point x="157" y="82"/>
      <point x="217" y="82" type="curve"/>
      <point x="202" y="9" type="line" smooth="yes"/>
      <point x="197" y="-12"/>
      <point x="212" y="-20"/>
    </contour>
  </outline>
</glyph>
<glyph name="semicolon" format="1">
  <advance width="262"/>
  <unicode hex="003B"/>
  <outline>
    <contour>
      <point x="126" y="-55" type="curve" smooth="yes"/>
      <point x="156" y="-55"/>
      <point x="219" y="53"/>
      <point x="219" y="70" type="curve" smooth="yes"/>
      <point x="219" y="89"/>
      <point x="199" y="100"/>
      <point x="176" y="100" type="curve" smooth="yes"/>
      <point x="157" y="100"/>
      <point x="144" y="91"/>
      <point x="138" y="77" type="curve" smooth="yes"/>
      <point x="128" y="53"/>
      <point x="108" y="1"/>
      <point x="108" y="-37" type="curve" smooth="yes"/>
      <point x="108" y="-48"/>
      <point x="115" y="-55"/>
    </contour>
    <contour>
      <point x="186" y="240" type="curve" smooth="yes"/>
      <point x="221" y="240"/>
      <point x="240" y="261"/>
      <point x="240" y="295" type="curve" smooth="yes"/>
      <point x="240" y="325"/>
      <point x="224" y="340"/>
      <point x="192" y="340" type="curve" smooth="yes"/>
      <point x="158" y="340"/>
      <point x="140" y="319"/>
      <point x="140" y="285" type="curve" smooth="yes"/>
      <point x="140" y="254"/>
      <point x="155" y="240"/>
    </contour>
  </outline>
</glyph>
<glyph name="M" format="1">
  <advance width="770"/>
  <unicode hex="004D"/>
  <outline>
    <contour>
      <point x="119" y="9" type="curve" smooth="yes"/>
      <point x="242" y="349"/>
      <point x="323" y="573"/>
      <point x="412" y="578" type="curve" smooth="yes"/>
      <point x="482" y="582"/>
      <point x="468" y="430"/>
      <point x="422" y="282" type="curve" smooth="yes"/>
      <point x="332" y="-7" type="line" smooth="yes"/>
      <point x="329" y="-18"/>
      <point x="345" y="-31"/>
      <point x="362" y="-31" type="curve" smooth="yes"/>
      <point x="373" y="-31"/>
      <point x="385" y="-24"/>
      <point x="388" y="-6" type="curve"/>
      <point x="477" y="292"/>
      <point x="560" y="533"/>
      <point x="652" y="546" type="curve" smooth="yes"/>
      <point x="694" y="552"/>
      <point x="704" y="519"/>
      <point x="699" y="489" type="curve" smooth="yes"/>
      <point x="679" y="363"/>
      <point x="604" y="224"/>
      <point x="595" y="85" type="curve" smooth="yes"/>
      <point x="592" y="32"/>
      <point x="619" y="-26"/>
      <point x="687" y="-33" type="curve" smooth="yes"/>
      <point x="767" y="-42"/>
      <point x="828" y="4"/>
      <point x="852" y="45" type="curve" smooth="yes"/>
      <point x="861" y="62"/>
      <point x="838" y="98"/>
      <point x="820" y="75" type="curve" smooth="yes"/>
      <point x="795" y="45"/>
      <point x="749" y="9"/>
      <point x="695" y="16" type="curve" smooth="yes"/>
      <point x="657" y="21"/>
      <point x="646" y="53"/>
      <point x="649" y="88" type="curve" smooth="yes"/>
      <point x="662" y="250"/>
      <point x="747" y="368"/>
      <point x="757" y="500" type="curve" smooth="yes"/>
      <point x="763" y="572"/>
      <point x="713" y="606"/>
      <point x="674" y="606" type="curve" smooth="yes"/>
      <point x="606" y="608"/>
      <point x="549" y="543"/>
      <point x="495" y="406" type="curve"/>
      <point x="524" y="534"/>
      <point x="504" y="629"/>
      <point x="424" y="629" type="curve"/>
      <point x="309" y="626"/>
      <point x="261" y="486"/>
      <point x="217" y="366" type="curve"/>
      <point x="244" y="474"/>
      <point x="258" y="606"/>
      <point x="155" y="620" type="curve" smooth="yes"/>
      <point x="70" y="630"/>
      <point x="7" y="557"/>
      <point x="7" y="454" type="curve" smooth="yes"/>
      <point x="7" y="414"/>
      <point x="55" y="412"/>
      <point x="55" y="447" type="curve" smooth="yes"/>
      <point x="55" y="523"/>
      <point x="93" y="579"/>
      <point x="143" y="575" type="curve" smooth="yes"/>
      <point x="213" y="569"/>
      <point x="204" y="420"/>
      <point x="151" y="265" type="curve" smooth="yes"/>
      <point x="55" y="-18" type="line" smooth="yes"/>
      <point x="51" y="-29"/>
      <point x="66" y="-41"/>
      <point x="79" y="-41" type="curve" smooth="yes"/>
      <point x="103" y="-41"/>
      <point x="107" y="-24"/>
    </contour>
    <contour>
      <point x="552" y="658" type="move" name="top"/>
    </contour>
  </outline>
</glyph>
<glyph name="R" format="1">
  <advance width="697"/>
  <unicode hex="0052"/>
  <outline>
    <contour>
      <point x="219" y="-119" type="curve" smooth="yes"/>
      <point x="322" y="-119"/>
      <point x="341" y="-19"/>
      <point x="378" y="343" type="curve" smooth="yes"/>
      <point x="387" y="429"/>
      <point x="429" y="464"/>
      <point x="429" y="481" type="curve" smooth="yes"/>
      <point x="429" y="489"/>
      <point x="415" y="497"/>
      <point x="398" y="496" type="curve" smooth="yes"/>
      <point x="353" y="495"/>
      <point x="337" y="441"/>
      <point x="321" y="355" type="curve" smooth="yes"/>
      <point x="284" y="152"/>
      <point x="298" y="-66"/>
      <point x="222" y="-66" type="curve" smooth="yes"/>
      <point x="166" y="-66"/>
      <point x="127" y="11"/>
      <point x="127" y="225" type="curve" smooth="yes"/>
      <point x="127" y="446"/>
      <point x="231" y="639"/>
      <point x="416" y="639" type="curve" smooth="yes"/>
      <point x="567" y="639"/>
      <point x="619" y="576"/>
      <point x="616" y="497" type="curve"/>
      <point x="616" y="435"/>
      <point x="565" y="378"/>
      <point x="370" y="383" type="curve" smooth="yes"/>
      <point x="328" y="383"/>
      <point x="297" y="389"/>
      <point x="278" y="389" type="curve" smooth="yes"/>
      <point x="262" y="390"/>
      <point x="254" y="388"/>
      <point x="251" y="379" type="curve" smooth="yes"/>
      <point x="244" y="352"/>
      <point x="284" y="324"/>
      <point x="433" y="331" type="curve"/>
      <point x="495" y="-9"/>
      <point x="612" y="-137"/>
      <point x="712" y="-148" type="curve" smooth="yes"/>
      <point x="749" y="-153"/>
      <point x="791" y="-149"/>
      <point x="838" y="-96" type="curve" smooth="yes"/>
      <point x="850" y="-83"/>
      <point x="848" y="-74"/>
      <point x="838" y="-64" type="curve" smooth="yes"/>
      <point x="827" y="-54"/>
      <point x="816" y="-61"/>
      <point x="809" y="-69" type="curve" smooth="yes"/>
      <point x="789" y="-89"/>
      <point x="759" y="-100"/>
      <point x="734" y="-96" type="curve" smooth="yes"/>
      <point x="695" y="-91"/>
      <point x="572" y="-67"/>
      <point x="481" y="338" type="curve"/>
      <point x="552" y="337"/>
      <point x="672" y="390"/>
      <point x="674" y="504" type="curve"/>
      <point x="678" y="618"/>
      <point x="572" y="696"/>
      <point x="415" y="697" type="curve" smooth="yes"/>
      <point x="236" y="697"/>
      <point x="70" y="534"/>
      <point x="70" y="225" type="curve" smooth="yes"/>
      <point x="70" y="-2"/>
      <point x="123" y="-120"/>
    </contour>
    <contour>
      <point x="462" y="658" type="move" name="top"/>
    </contour>
  </outline>
</glyph>
<glyph name="V" format="1">
  <advance width="580"/>
  <unicode hex="0056"/>
  <outline>
    <contour>
      <point x="507" y="284" type="curve" smooth="yes"/>
      <point x="458" y="188"/>
      <point x="374" y="46"/>
      <point x="282" y="35" type="curve" smooth="yes"/>
      <point x="235" y="30"/>
      <point x="204" y="65"/>
      <point x="204" y="164" type="curve" smooth="yes"/>
      <point x="204" y="347"/>
      <point x="305" y="480"/>
      <point x="315" y="494" type="curve" smooth="yes"/>
      <point x="322" y="503"/>
      <point x="288" y="538"/>
      <point x="251" y="486" type="curve" smooth="yes"/>
      <point x="233" y="459"/>
      <point x="149" y="336"/>
      <point x="149" y="170" type="curve" smooth="yes"/>
      <point x="149" y="44"/>
      <point x="188" y="-20"/>
      <point x="268" y="-20" type="curve"/>
      <point x="377" y="-14"/>
      <point x="461" y="108"/>
      <point x="546" y="260" type="curve" smooth="yes"/>
      <point x="680" y="500"/>
      <point x="637" y="660"/>
      <point x="547" y="664" type="curve"/>
      <point x="309" y="664"/>
      <point x="433" y="197"/>
      <point x="778" y="465" type="curve" smooth="yes"/>
      <point x="798" y="480"/>
      <point x="782" y="510"/>
      <point x="764" y="497" type="curve" smooth="yes"/>
      <point x="474" y="288"/>
      <point x="403" y="608"/>
      <point x="531" y="608" type="curve" smooth="yes"/>
      <point x="570" y="608"/>
      <point x="626" y="516"/>
    </contour>
    <contour>
      <point x="49" y="327" type="curve" smooth="yes"/>
      <point x="278" y="469" type="line" smooth="yes"/>
      <point x="291" y="477"/>
      <point x="278" y="512"/>
      <point x="265" y="503" type="curve" smooth="yes"/>
      <point x="38" y="366" type="line" smooth="yes"/>
      <point x="17" y="354"/>
      <point x="28" y="313"/>
    </contour>
  </outline>
</glyph>
<glyph name="W" format="1">
  <advance width="936"/>
  <unicode hex="0057"/>
  <outline>
    <contour>
      <point x="624" y="-20" type="curve"/>
      <point x="733" y="-14"/>
      <point x="817" y="108"/>
      <point x="902" y="260" type="curve" smooth="yes"/>
      <point x="1036" y="500"/>
      <point x="992" y="660"/>
      <point x="903" y="664" type="curve"/>
      <point x="664" y="664"/>
      <point x="789" y="197"/>
      <point x="1134" y="465" type="curve" smooth="yes"/>
      <point x="1154" y="480"/>
      <point x="1138" y="510"/>
      <point x="1120" y="497" type="curve" smooth="yes"/>
      <point x="830" y="288"/>
      <point x="759" y="608"/>
      <point x="887" y="608" type="curve" smooth="yes"/>
      <point x="926" y="608"/>
      <point x="982" y="516"/>
      <point x="863" y="284" type="curve" smooth="yes"/>
      <point x="813" y="188"/>
      <point x="730" y="46"/>
      <point x="638" y="35" type="curve" smooth="yes"/>
      <point x="591" y="30"/>
      <point x="553" y="72"/>
      <point x="553" y="184" type="curve" smooth="yes"/>
      <point x="553" y="207"/>
      <point x="555" y="265"/>
      <point x="560" y="274" type="curve" smooth="yes"/>
      <point x="564" y="282"/>
      <point x="635" y="396"/>
      <point x="636" y="453" type="curve" smooth="yes"/>
      <point x="637" y="473"/>
      <point x="629" y="486"/>
      <point x="607" y="486" type="curve" smooth="yes"/>
      <point x="593" y="486"/>
      <point x="576" y="465"/>
      <point x="560" y="430" type="curve" smooth="yes"/>
      <point x="534" y="371"/>
      <point x="512" y="274"/>
      <point x="512" y="170" type="curve" smooth="yes"/>
      <point x="512" y="44"/>
      <point x="544" y="-20"/>
    </contour>
    <contour>
      <point x="274" y="-20" type="curve"/>
      <point x="383" y="-14"/>
      <point x="468" y="108"/>
      <point x="553" y="260" type="curve"/>
      <point x="538" y="352" type="line"/>
      <point x="514" y="284" type="line"/>
      <point x="464" y="188"/>
      <point x="381" y="46"/>
      <point x="289" y="35" type="curve" smooth="yes"/>
      <point x="242" y="30"/>
      <point x="210" y="65"/>
      <point x="210" y="164" type="curve" smooth="yes"/>
      <point x="210" y="347"/>
      <point x="312" y="480"/>
      <point x="322" y="494" type="curve" smooth="yes"/>
      <point x="329" y="503"/>
      <point x="294" y="538"/>
      <point x="258" y="486" type="curve" smooth="yes"/>
      <point x="239" y="459"/>
      <point x="156" y="336"/>
      <point x="156" y="170" type="curve" smooth="yes"/>
      <point x="156" y="44"/>
      <point x="195" y="-20"/>
    </contour>
    <contour>
      <point x="55" y="327" type="curve" smooth="yes"/>
      <point x="284" y="469" type="line" smooth="yes"/>
      <point x="297" y="477"/>
      <point x="285" y="512"/>
      <point x="271" y="503" type="curve" smooth="yes"/>
      <point x="44" y="366" type="line" smooth="yes"/>
      <point x="23" y="354"/>
      <point x="34" y="313"/>
    </contour>
    <contour>
      <point x="642" y="658" type="move" name="top"/>
    </contour>
  </outline>
</glyph>
<glyph name="backslash" format="1">
  <advance width="426"/>
  <unicode hex="005C"/>
  <outline>
    <contour>
      <point x="369" y="-5" type="curve" smooth="yes"/>
      <point x="379" y="-5"/>
      <point x="389" y="5"/>
      <point x="389" y="20" type="curve" smooth="yes"/>
      <point x="389" y="25"/>
      <point x="388" y="30"/>
      <point x="386" y="36" type="curve"/>
      <point x="136" y="582" type="line" smooth="yes"/>
      <point x="121" y="615"/>
      <point x="117" y="637"/>
      <point x="96" y="637" type="curve" smooth="yes"/>
      <point x="83" y="637"/>
      <point x="69" y="629"/>
      <point x="69" y="620" type="curve" smooth="yes"/>
      <point x="69" y="609"/>
      <point x="79" y="594"/>
      <point x="88" y="574" type="curve" smooth="yes"/>
      <point x="349" y="10" type="line" smooth="yes"/>
      <point x="354" y="-1"/>
      <point x="362" y="-5"/>
    </contour>
  </outline>
</glyph>
<glyph name="underscore" format="1">
  <advance width="426"/>
  <unicode hex="005F"/>
  <outline>
    <contour>
      <point x="34" y="10" type="curve" smooth="yes"/>
      <point x="357" y="10" type="line" smooth="yes"/>
      <point x="401" y="10"/>
      <point x="431" y="20"/>
      <point x="431" y="56" type="curve" smooth="yes"/>
      <point x="431" y="64"/>
      <point x="426" y="66"/>
      <point x="413" y="66" type="curve" smooth="yes"/>
      <point x="292" y="66" type="line" smooth="yes"/>
      <point x="169" y="66" type="line" smooth="yes"/>
      <point x="70" y="66" type="line" smooth="yes"/>
      <point x="33" y="66"/>
      <point x="-2" y="64"/>
      <point x="-2" y="37" type="curve" smooth="yes"/>
      <point x="-2" y="20"/>
      <point x="13" y="10"/>
    </contour>
  </outline>
</glyph>
<glyph name="grave" format="1">
  <advance width="208"/>
  <unicode hex="0060"/>
  <outline>
    <contour>
      <point x="146" y="436" type="curve"/>
      <point x="122" y="487"/>
      <point x="96" y="541"/>
      <point x="73" y="594" type="curve" smooth="yes"/>
      <point x="59" y="628"/>
      <point x="-17" y="600"/>
      <point x="22" y="546" type="curve" smooth="yes"/>
      <point x="49" y="509"/>
      <point x="84" y="464"/>
      <point x="116" y="426" type="curve" smooth="yes"/>
      <point x="123" y="417"/>
      <point x="130" y="411"/>
      <point x="139" y="411" type="curve" smooth="yes"/>
      <point x="148" y="411"/>
      <point x="150" y="426"/>
    </contour>
    <contour>
      <point x="144" y="333" type="move" name="_top"/>
    </contour>
  </outline>
</glyph>
<glyph name="f" format="1">
  <advance width="241"/>
  <unicode hex="0066"/>
  <outline>
    <contour>
      <point x="99" y="-208" type="curve" smooth="yes"/>
      <point x="179" y="-218"/>
      <point x="212" y="-116"/>
      <point x="212" y="-10" type="curve" smooth="yes"/>
      <point x="212" y="58"/>
      <point x="177" y="131"/>
      <point x="149" y="166" type="curve"/>
      <point x="225" y="145"/>
      <point x="328" y="179"/>
      <point x="334" y="236" type="curve" smooth="yes"/>
      <point x="335" y="244"/>
      <point x="335" y="250"/>
      <point x="330" y="250" type="curve" smooth="yes"/>
      <point x="326" y="250"/>
      <point x="314" y="250"/>
      <point x="300" y="235" type="curve" smooth="yes"/>
      <point x="277" y="213"/>
      <point x="248" y="190"/>
      <point x="198" y="190" type="curve" smooth="yes"/>
      <point x="181" y="190"/>
      <point x="141" y="199"/>
      <point x="129" y="210" type="curve"/>
      <point x="249" y="338"/>
      <point x="357" y="468"/>
      <point x="352" y="584" type="curve" smooth="yes"/>
      <point x="350" y="627"/>
      <point x="327" y="658"/>
      <point x="291" y="658" type="curve" smooth="yes"/>
      <point x="111" y="658"/>
      <point x="28" y="176"/>
      <point x="28" y="-13" type="curve" smooth="yes"/>
      <point x="28" y="-93"/>
      <point x="38" y="-200"/>
    </contour>
    <contour>
      <point x="106" y="-164" type="curve" smooth="yes"/>
      <point x="78" y="-161"/>
      <point x="78" y="-79"/>
      <point x="78" y="-26" type="curve" smooth="yes"/>
      <point x="78" y="54"/>
      <point x="82" y="105"/>
      <point x="91" y="186" type="curve"/>
      <point x="123" y="138"/>
      <point x="167" y="69"/>
      <point x="167" y="-17" type="curve" smooth="yes"/>
      <point x="167" y="-87"/>
      <point x="148" y="-168"/>
    </contour>
    <contour>
      <point x="93" y="222" type="curve"/>
      <point x="109" y="302"/>
      <point x="187" y="613"/>
      <point x="275" y="613" type="curve" smooth="yes"/>
      <point x="298" y="613"/>
      <point x="303" y="588"/>
      <point x="303" y="568" type="curve" smooth="yes"/>
      <point x="303" y="473"/>
      <point x="174" y="321"/>
    </contour>
  </outline>
</glyph>
<glyph name="g" format="1">
  <advance width="342"/>
  <unicode hex="0067"/>
  <outline>
    <contour>
      <point x="43" y="-321" type="curve" smooth="yes"/>
      <point x="103" y="-321"/>
      <point x="146" y="-290"/>
      <point x="178" y="-236" type="curve" smooth="yes"/>
      <point x="210" y="-183"/>
      <point x="231" y="-107"/>
      <point x="248" y="-20" type="curve"/>
      <point x="320" y="30"/>
      <point x="353" y="57"/>
      <point x="400" y="81" type="curve"/>
      <point x="431" y="102"/>
      <point x="412" y="128"/>
      <point x="389" y="123" type="curve"/>
      <point x="339" y="99"/>
      <point x="304" y="66"/>
      <point x="250" y="25" type="curve"/>
      <point x="309" y="282" type="line" smooth="yes"/>
      <point x="312" y="299"/>
      <point x="287" y="309"/>
      <point x="269" y="301" type="curve"/>
      <point x="269" y="301"/>
      <point x="280" y="324"/>
      <point x="227" y="325" type="curve" smooth="yes"/>
      <point x="124" y="328"/>
      <point x="30" y="215"/>
      <point x="30" y="95" type="curve" smooth="yes"/>
      <point x="30" y="46"/>
      <point x="68" y="12"/>
      <point x="110" y="9" type="curve" smooth="yes"/>
      <point x="150" y="6"/>
      <point x="192" y="28"/>
      <point x="215" y="72" type="curve"/>
      <point x="196" y="-2" type="line"/>
      <point x="156" y="-33"/>
      <point x="102" y="-74"/>
      <point x="57" y="-118" type="curve" smooth="yes"/>
      <point x="13" y="-162"/>
      <point x="-21" y="-209"/>
      <point x="-21" y="-251" type="curve" smooth="yes"/>
      <point x="-21" y="-292"/>
      <point x="-3" y="-321"/>
    </contour>
    <contour>
      <point x="128" y="54" type="curve" smooth="yes"/>
      <point x="92" y="54"/>
      <point x="83" y="86"/>
      <point x="83" y="109" type="curve" smooth="yes"/>
      <point x="83" y="197"/>
      <point x="151" y="292"/>
      <point x="250" y="282" type="curve"/>
      <point x="216" y="158" type="line" smooth="yes"/>
      <point x="207" y="125"/>
      <point x="185" y="54"/>
    </contour>
    <contour>
      <point x="46" y="-277" type="curve" smooth="yes"/>
      <point x="28" y="-277"/>
      <point x="22" y="-260"/>
      <point x="22" y="-249" type="curve" smooth="yes"/>
      <point x="22" y="-192"/>
      <point x="118" y="-110"/>
      <point x="188" y="-52" type="curve"/>
      <point x="168" y="-138"/>
      <point x="136" y="-277"/>
    </contour>
    <contour>
      <point x="242" y="333" type="move" name="top"/>
    </contour>
  </outline>
</glyph>
<glyph name="k" format="1">
  <advance width="419"/>
  <unicode hex="006B"/>
  <outline>
    <contour>
      <point x="298" y="-3" type="curve" smooth="yes"/>
      <point x="354" y="-3"/>
      <point x="431" y="36"/>
      <point x="487" y="120" type="curve" smooth="yes"/>
      <point x="498" y="136"/>
      <point x="490" y="161"/>
      <point x="474" y="161" type="curve" smooth="yes"/>
      <point x="474" y="161"/>
      <point x="395" y="42"/>
      <point x="309" y="42" type="curve" smooth="yes"/>
      <point x="292" y="42"/>
      <point x="279" y="53"/>
      <point x="280" y="71" type="curve"/>
      <point x="287" y="132"/>
      <point x="416" y="166"/>
      <point x="408" y="262" type="curve" smooth="yes"/>
      <point x="404" y="304"/>
      <point x="378" y="329"/>
      <point x="337" y="329" type="curve" smooth="yes"/>
      <point x="285" y="329"/>
      <point x="244" y="310"/>
      <point x="96" y="74" type="curve"/>
      <point x="96" y="107"/>
      <point x="100" y="162"/>
      <point x="106" y="209" type="curve"/>
      <point x="192" y="275"/>
      <point x="347" y="433"/>
      <point x="347" y="570" type="curve" smooth="yes"/>
      <point x="347" y="607"/>
      <point x="324" y="645"/>
      <point x="288" y="645" type="curve" smooth="yes"/>
      <point x="174" y="645"/>
      <point x="66" y="420"/>
      <point x="50" y="112" type="curve"/>
      <point x="50" y="8"/>
      <point x="63" y="-3"/>
      <point x="77" y="-3" type="curve" smooth="yes"/>
      <point x="125" y="-3"/>
      <point x="242" y="273"/>
      <point x="321" y="280" type="curve" smooth="yes"/>
      <point x="351" y="282"/>
      <point x="356" y="258"/>
      <point x="356" y="243" type="curve" smooth="yes"/>
      <point x="356" y="199"/>
      <point x="224" y="138"/>
      <point x="224" y="61" type="curve" smooth="yes"/>
      <point x="224" y="6"/>
      <point x="265" y="-3"/>
    </contour>
    <contour>
      <point x="110" y="259" type="curve"/>
      <point x="137" y="404"/>
      <point x="205" y="589"/>
      <point x="270" y="591" type="curve"/>
      <point x="289" y="591"/>
      <point x="297" y="580"/>
      <point x="297" y="561" type="curve" smooth="yes"/>
      <point x="298" y="486"/>
      <point x="163" y="293"/>
    </contour>
  </outline>
</glyph>
<glyph name="o" format="1">
  <advance width="302"/>
  <unicode hex="006F"/>
  <outline>
    <contour>
      <point x="119" y="-3" type="curve" smooth="yes"/>
      <point x="218" y="-3"/>
      <point x="262" y="97"/>
      <point x="271" y="158" type="curve"/>
      <point x="314" y="158"/>
      <point x="385" y="193"/>
      <point x="417" y="252" type="curve" smooth="yes"/>
      <point x="427" y="270"/>
      <point x="400" y="291"/>
      <point x="390" y="277" type="curve" smooth="yes"/>
      <point x="351" y="225"/>
      <point x="325" y="209"/>
      <point x="277" y="197" type="curve"/>
      <point x="289" y="283"/>
      <point x="256" y="330"/>
      <point x="194" y="330" type="curve" smooth="yes"/>
      <point x="104" y="330"/>
      <point x="23" y="217"/>
      <point x="23" y="113" type="curve" smooth="yes"/>
      <point x="23" y="48"/>
      <point x="58" y="-3"/>
    </contour>
    <contour>
      <point x="140" y="41" type="curve" smooth="yes"/>
      <point x="90" y="38"/>
      <point x="77" y="77"/>
      <point x="77" y="117" type="curve" smooth="yes"/>
      <point x="77" y="198"/>
      <point x="133" y="286"/>
      <point x="195" y="286" type="curve" smooth="yes"/>
      <point x="236" y="286"/>
      <point x="225" y="223"/>
      <point x="225" y="223" type="curve"/>
      <point x="190" y="214"/>
      <point x="184" y="163"/>
      <point x="224" y="158" type="curve"/>
      <point x="221" y="110"/>
      <point x="187" y="44"/>
    </contour>
    <contour>
      <point x="134" y="12" type="move" name="ogonek"/>
    </contour>
    <contour>
      <point x="222" y="333" type="move" name="top"/>
    </contour>
  </outline>
</glyph>
<glyph name="t" format="1">
  <advance width="247"/>
  <unicode hex="0074"/>
  <outline>
    <contour>
      <point x="146" y="-12" type="curve" smooth="yes"/>
      <point x="210" y="-22"/>
      <point x="265" y="12"/>
      <point x="317" y="75" type="curve" smooth="yes"/>
      <point x="340" y="103"/>
      <point x="308" y="124"/>
      <point x="296" y="109" type="curve" smooth="yes"/>
      <point x="259" y="63"/>
      <point x="212" y="21"/>
      <point x="163" y="31" type="curve" smooth="yes"/>
      <point x="96" y="45"/>
      <point x="109" y="167"/>
      <point x="119" y="234" type="curve"/>
      <point x="186" y="304"/>
      <point x="300" y="436"/>
      <point x="311" y="553" type="curve" smooth="yes"/>
      <point x="313" y="585"/>
      <point x="298" y="612"/>
      <point x="265" y="612" type="curve" smooth="yes"/>
      <point x="140" y="614"/>
      <point x="78" y="354"/>
      <point x="58" y="206" type="curve"/>
      <point x="46" y="89"/>
      <point x="67" y="0"/>
    </contour>
    <contour>
      <point x="19" y="176" type="curve" smooth="yes"/>
      <point x="49" y="188"/>
      <point x="185" y="230"/>
      <point x="251" y="237" type="curve" smooth="yes"/>
      <point x="269" y="239"/>
      <point x="268" y="274"/>
      <point x="246" y="271" type="curve" smooth="yes"/>
      <point x="193" y="266"/>
      <point x="102" y="242"/>
      <point x="4" y="201" type="curve" smooth="yes"/>
      <point x="-10" y="196"/>
      <point x="-1" y="167"/>
    </contour>
    <contour>
      <point x="117" y="275" type="curve"/>
      <point x="128" y="343"/>
      <point x="181" y="565"/>
      <point x="254" y="564" type="curve" smooth="yes"/>
      <point x="268" y="564"/>
      <point x="266" y="537"/>
      <point x="263" y="524" type="curve" smooth="yes"/>
      <point x="241" y="420"/>
      <point x="159" y="337"/>
    </contour>
    <contour>
      <point x="105" y="339" type="move" name="mid"/>
    </contour>
    <contour>
      <point x="359" y="551" type="move" name="caron.alt"/>
    </contour>
    <contour>
      <point x="176" y="0" type="move" name="bot"/>
    </contour>
  </outline>
</glyph>
<glyph name="currency" format="1">
  <advance width="503"/>
  <unicode hex="00A4"/>
  <outline>
    <contour>
      <point x="382" y="119" type="curve" smooth="yes"/>
      <point x="393" y="119"/>
      <point x="406" y="132"/>
      <point x="406" y="144" type="curve"/>
      <point x="405" y="148"/>
      <point x="400" y="156"/>
      <point x="389" y="167" type="curve"/>
      <point x="348" y="205" type="line"/>
      <point x="390" y="247"/>
      <point x="415" y="318"/>
      <point x="418" y="380" type="curve" smooth="yes"/>
      <point x="419" y="413"/>
      <point x="415" y="442"/>
      <point x="403" y="464" type="curve"/>
      <point x="450" y="496" type="line" smooth="yes"/>
      <point x="463" y="504"/>
      <point x="472" y="511"/>
      <point x="472" y="522" type="curve" smooth="yes"/>
      <point x="472" y="533"/>
      <point x="463" y="543"/>
      <point x="454" y="543" type="curve" smooth="yes"/>
      <point x="428" y="543"/>
      <point x="397" y="510"/>
      <point x="376" y="498" type="curve"/>
      <point x="353" y="518"/>
      <point x="321" y="527"/>
      <point x="287" y="527" type="curve" smooth="yes"/>
      <point x="253" y="527"/>
      <point x="220" y="519"/>
      <point x="193" y="502" type="curve"/>
      <point x="146" y="543" type="line" smooth="yes"/>
      <point x="137" y="552"/>
      <point x="128" y="556"/>
      <point x="123" y="556" type="curve" smooth="yes"/>
      <point x="112" y="556"/>
      <point x="99" y="542"/>
      <point x="99" y="531" type="curve" smooth="yes"/>
      <point x="99" y="521"/>
      <point x="105" y="516"/>
      <point x="115" y="507" type="curve" smooth="yes"/>
      <point x="155" y="471" type="line"/>
      <point x="117" y="429"/>
      <point x="96" y="359"/>
      <point x="96" y="300" type="curve" smooth="yes"/>
      <point x="96" y="269"/>
      <point x="102" y="240"/>
      <point x="114" y="219" type="curve"/>
      <point x="54" y="178" type="line"/>
      <point x="41" y="168"/>
      <point x="32" y="163"/>
      <point x="32" y="152" type="curve" smooth="yes"/>
      <point x="32" y="141"/>
      <point x="41" y="130"/>
      <point x="50" y="130" type="curve" smooth="yes"/>
      <point x="55" y="130"/>
      <point x="63" y="134"/>
      <point x="73" y="140" type="curve" smooth="yes"/>
      <point x="94" y="151"/>
      <point x="121" y="171"/>
      <point x="141" y="186" type="curve"/>
      <point x="163" y="166"/>
      <point x="192" y="156"/>
      <point x="222" y="154" type="curve" smooth="yes"/>
      <point x="251" y="153"/>
      <point x="283" y="161"/>
      <point x="308" y="175" type="curve"/>
      <point x="326" y="163"/>
      <point x="355" y="119"/>
    </contour>
    <contour>
      <point x="238" y="200" type="curve" smooth="yes"/>
      <point x="180" y="200"/>
      <point x="151" y="242"/>
      <point x="151" y="308" type="curve" smooth="yes"/>
      <point x="151" y="396"/>
      <point x="197" y="482"/>
      <point x="287" y="482" type="curve" smooth="yes"/>
      <point x="336" y="482"/>
      <point x="362" y="443"/>
      <point x="357" y="385" type="curve"/>
      <point x="357" y="305"/>
      <point x="323" y="200"/>
    </contour>
  </outline>
</glyph>
<glyph name="macron" format="1">
  <advance width="205"/>
  <unicode hex="00AF"/>
  <outline>
    <contour>
      <point x="25" y="400" type="curve" smooth="yes"/>
      <point x="194" y="416" type="line" smooth="yes"/>
      <point x="207" y="418"/>
      <point x="212" y="428"/>
      <point x="212" y="437" type="curve" smooth="yes"/>
      <point x="211" y="445"/>
      <point x="208" y="452"/>
      <point x="192" y="451" type="curve" smooth="yes"/>
      <point x="25" y="440" type="line" smooth="yes"/>
      <point x="10" y="439"/>
      <point x="6" y="429"/>
      <point x="6" y="419" type="curve" smooth="yes"/>
      <point x="6" y="405"/>
      <point x="13" y="398"/>
    </contour>
    <contour>
      <point x="118" y="333" type="move" name="_top"/>
    </contour>
  </outline>
</glyph>
<glyph name="degree" format="1">
  <advance width="251"/>
  <unicode hex="00B0"/>
  <outline>
    <contour>
      <point x="111" y="404" type="curve" smooth="yes"/>
      <point x="84" y="404"/>
      <point x="66" y="424"/>
      <point x="66" y="450" type="curve" smooth="yes"/>
      <point x="66" y="490"/>
      <point x="101" y="516"/>
      <point x="141" y="516" type="curve" smooth="yes"/>
      <point x="165" y="516"/>
      <point x="181" y="497"/>
      <point x="181" y="475" type="curve" smooth="yes"/>
      <point x="181" y="437"/>
      <point x="149" y="404"/>
    </contour>
    <contour>
      <point x="111" y="367" type="curve" smooth="yes"/>
      <point x="176" y="367"/>
      <point x="223" y="413"/>
      <point x="223" y="479" type="curve" smooth="yes"/>
      <point x="223" y="523"/>
      <point x="193" y="551"/>
      <point x="150" y="551" type="curve" smooth="yes"/>
      <point x="88" y="551"/>
      <point x="29" y="512"/>
      <point x="29" y="450" type="curve" smooth="yes"/>
      <point x="29" y="398"/>
      <point x="61" y="367"/>
    </contour>
  </outline>
</glyph>
<glyph name="mu" format="1">
  <advance width="347"/>
  <unicode hex="00B5"/>
  <outline>
    <contour>
      <point x="-9" y="-55" type="line" smooth="yes"/>
      <point x="-14" y="-77"/>
      <point x="30" y="-102"/>
      <point x="41" y="-52" type="curve" smooth="yes"/>
      <point x="56" y="18" type="line"/>
      <point x="69" y="4"/>
      <point x="88" y="-3"/>
      <point x="112" y="-5" type="curve" smooth="yes"/>
      <point x="166" y="-8"/>
      <point x="201" y="21"/>
      <point x="226" y="66" type="curve"/>
      <point x="226" y="61"/>
      <point x="226" y="55"/>
      <point x="227" y="48" type="curve" smooth="yes"/>
      <point x="230" y="25"/>
      <point x="244" y="-2"/>
      <point x="279" y="-4" type="curve" smooth="yes"/>
      <point x="330" y="-6"/>
      <point x="396" y="48"/>
      <point x="420" y="90" type="curve" smooth="yes"/>
      <point x="429" y="104"/>
      <point x="423" y="117"/>
      <point x="406" y="117" type="curve" smooth="yes"/>
      <point x="400" y="117"/>
      <point x="392" y="115"/>
      <point x="383" y="103" type="curve" smooth="yes"/>
      <point x="370" y="84"/>
      <point x="325" y="37"/>
      <point x="291" y="35" type="curve" smooth="yes"/>
      <point x="275" y="34"/>
      <point x="263" y="52"/>
      <point x="267" y="97" type="curve" smooth="yes"/>
      <point x="275" y="182"/>
      <point x="311" y="278"/>
      <point x="319" y="305" type="curve" smooth="yes"/>
      <point x="322" y="312"/>
      <point x="315" y="324"/>
      <point x="303" y="326" type="curve" smooth="yes"/>
      <point x="286" y="328"/>
      <point x="272" y="324"/>
      <point x="262" y="284" type="curve" smooth="yes"/>
      <point x="229" y="159" type="line" smooth="yes"/>
      <point x="204" y="65"/>
      <point x="165" y="38"/>
      <point x="126" y="37" type="curve" smooth="yes"/>
      <point x="94" y="37"/>
      <point x="79" y="62"/>
      <point x="82" y="103" type="curve" smooth="yes"/>
      <point x="86" y="172"/>
      <point x="105" y="240"/>
      <point x="134" y="313" type="curve"/>
      <point x="134" y="322"/>
      <point x="126" y="328"/>
      <point x="111" y="328" type="curve" smooth="yes"/>
      <point x="97" y="328"/>
      <point x="89" y="327"/>
      <point x="84" y="316" type="curve" smooth="yes"/>
      <point x="66" y="277"/>
      <point x="54" y="235"/>
      <point x="45" y="194" type="curve" smooth="yes"/>
    </contour>
  </outline>
</glyph>
<glyph name="paragraph" format="1">
  <advance width="447"/>
  <unicode hex="00B6"/>
  <outline>
    <contour>
      <point x="213" y="-82" type="curve" smooth="yes"/>
      <point x="322" y="541" type="line"/>
      <point x="386" y="542"/>
      <point x="405" y="544"/>
      <point x="399" y="511" type="curve" smooth="yes"/>
      <point x="301" y="-81" type="line" smooth="yes"/>
      <point x="295" y="-117"/>
      <point x="345" y="-113"/>
      <point x="352" y="-74" type="curve" smooth="yes"/>
      <point x="436" y="418" type="line" smooth="yes"/>
      <point x="442" y="455"/>
      <point x="454" y="489"/>
      <point x="454" y="519" type="curve" smooth="yes"/>
      <point x="454" y="584"/>
      <point x="375" y="585"/>
      <point x="294" y="585" type="curve" smooth="yes"/>
      <point x="187" y="585"/>
      <point x="77" y="561"/>
      <point x="77" y="460" type="curve" smooth="yes"/>
      <point x="77" y="377"/>
      <point x="140" y="344"/>
      <point x="232" y="344" type="curve"/>
      <point x="166" y="-75" type="line" smooth="yes"/>
      <point x="161" y="-106"/>
      <point x="209" y="-103"/>
    </contour>
  </outline>
</glyph>
<glyph name="onehalf" format="1">
  <advance width="967"/>
  <unicode hex="00BD"/>
  <outline>
    <contour>
      <point x="677" y="-3" type="curve" smooth="yes"/>
      <point x="719" y="-3"/>
      <point x="753" y="25"/>
      <point x="782" y="50" type="curve"/>
      <point x="807" y="30"/>
      <point x="832" y="0"/>
      <point x="869" y="0" type="curve" smooth="yes"/>
      <point x="906" y="0"/>
      <point x="918" y="33"/>
      <point x="918" y="65" type="curve" smooth="yes"/>
      <point x="918" y="75"/>
      <point x="911" y="75"/>
      <point x="910" y="73" type="curve" smooth="yes"/>
      <point x="905" y="66"/>
      <point x="892" y="50"/>
      <point x="879" y="50" type="curve" smooth="yes"/>
      <point x="848" y="50"/>
      <point x="830" y="68"/>
      <point x="810" y="81" type="curve"/>
      <point x="858" y="133"/>
      <point x="918" y="232"/>
      <point x="915" y="356" type="curve" smooth="yes"/>
      <point x="912" y="445"/>
      <point x="846" y="495"/>
      <point x="772" y="495" type="curve" smooth="yes"/>
      <point x="701" y="495"/>
      <point x="627" y="462"/>
      <point x="627" y="392" type="curve" smooth="yes"/>
      <point x="627" y="352"/>
      <point x="655" y="320"/>
      <point x="679" y="329" type="curve" smooth="yes"/>
      <point x="710" y="340"/>
      <point x="675" y="368"/>
      <point x="675" y="396" type="curve" smooth="yes"/>
      <point x="675" y="436"/>
      <point x="720" y="449"/>
      <point x="771" y="449" type="curve" smooth="yes"/>
      <point x="829" y="449"/>
      <point x="859" y="401"/>
      <point x="862" y="351" type="curve" smooth="yes"/>
      <point x="870" y="248"/>
      <point x="821" y="153"/>
      <point x="779" y="109" type="curve"/>
      <point x="749" y="129"/>
      <point x="704" y="164"/>
      <point x="657" y="164" type="curve" smooth="yes"/>
      <point x="611" y="164"/>
      <point x="583" y="128"/>
      <point x="583" y="84" type="curve" smooth="yes"/>
      <point x="583" y="35"/>
      <point x="625" y="-3"/>
    </contour>
    <contour>
      <point x="675" y="36" type="curve" smooth="yes"/>
      <point x="640" y="36"/>
      <point x="628" y="66"/>
      <point x="628" y="85" type="curve" smooth="yes"/>
      <point x="628" y="102"/>
      <point x="639" y="120"/>
      <point x="661" y="120" type="curve" smooth="yes"/>
      <point x="699" y="120"/>
      <point x="729" y="92"/>
      <point x="751" y="78" type="curve"/>
      <point x="734" y="53"/>
      <point x="702" y="36"/>
    </contour>
    <contour>
      <point x="324" y="5" type="curve" smooth="yes"/>
      <point x="574" y="564" type="line" smooth="yes"/>
      <point x="589" y="598"/>
      <point x="549" y="629"/>
      <point x="527" y="580" type="curve" smooth="yes"/>
      <point x="275" y="28" type="line" smooth="yes"/>
      <point x="253" y="-22"/>
      <point x="307" y="-32"/>
    </contour>
    <contour>
      <point x="171" y="215" type="curve" smooth="yes"/>
      <point x="202" y="375"/>
      <point x="249" y="622"/>
      <point x="255" y="653" type="curve" smooth="yes"/>
      <point x="260" y="680"/>
      <point x="256" y="701"/>
      <point x="236" y="697" type="curve" smooth="yes"/>
      <point x="201" y="690"/>
      <point x="157" y="676"/>
      <point x="129" y="667" type="curve" smooth="yes"/>
      <point x="105" y="660"/>
      <point x="109" y="613"/>
      <point x="134" y="620" type="curve" smooth="yes"/>
      <point x="147" y="624"/>
      <point x="186" y="634"/>
      <point x="202" y="640" type="curve"/>
      <point x="171" y="479"/>
      <point x="167" y="447"/>
      <point x="121" y="228" type="curve" smooth="yes"/>
      <point x="114" y="194"/>
      <point x="167" y="197"/>
    </contour>
  </outline>
</glyph>
<glyph name="AE" format="1">
  <advance width="1162"/>
  <unicode hex="00C6"/>
  <outline>
    <contour>
      <point x="993" y="98"/>
      <point x="984" y="95"/>
      <point x="978" y="84" type="curve"/>
      <point x="919" y="-3"/>
      <point x="776" y="-71"/>
      <point x="668" y="-71" type="curve" smooth="yes"/>
      <point x="582" y="-71"/>
      <point x="486" y="-25"/>
      <point x="522" y="90" type="curve" smooth="yes"/>
      <point x="572" y="250" type="line"/>
      <point x="612" y="249"/>
      <point x="689" y="245"/>
      <point x="750" y="245" type="curve" smooth="yes"/>
      <point x="777" y="245"/>
      <point x="790" y="254"/>
      <point x="790" y="271" type="curve" smooth="yes"/>
      <point x="790" y="283"/>
      <point x="783" y="296"/>
      <point x="771" y="296" type="curve" smooth="yes"/>
      <point x="744" y="297"/>
      <point x="616" y="296"/>
      <point x="585" y="300" type="curve"/>
      <point x="641" y="506" type="line"/>
      <point x="660" y="578"/>
      <point x="695" y="616"/>
      <point x="797" y="616" type="curve" smooth="yes"/>
      <point x="854" y="616"/>
      <point x="911" y="598"/>
      <point x="947" y="562" type="curve"/>
      <point x="923" y="542"/>
      <point x="908" y="517"/>
      <point x="918" y="485" type="curve"/>
      <point x="923" y="471"/>
      <point x="940" y="462"/>
      <point x="958" y="462" type="curve" smooth="yes"/>
      <point x="980" y="462"/>
      <point x="1011" y="485"/>
      <point x="1006" y="536" type="curve" smooth="yes"/>
      <point x="1000" y="617"/>
      <point x="897" y="662"/>
      <point x="790" y="662" type="curve" smooth="yes"/>
      <point x="754" y="662"/>
      <point x="687" y="647"/>
      <point x="653" y="636" type="curve"/>
      <point x="416" y="737"/>
      <point x="65" y="569"/>
      <point x="65" y="197" type="curve" smooth="yes"/>
      <point x="65" y="86"/>
      <point x="114" y="-46"/>
      <point x="277" y="-46" type="curve" smooth="yes"/>
      <point x="369" y="-46"/>
      <point x="428" y="-10"/>
      <point x="469" y="45" type="curve"/>
      <point x="460" y="-62"/>
      <point x="550" y="-116"/>
      <point x="660" y="-116" type="curve" smooth="yes"/>
      <point x="789" y="-116"/>
      <point x="941" y="-52"/>
      <point x="1012" y="57" type="curve" smooth="yes"/>
      <point x="1016" y="63"/>
      <point x="1019" y="70"/>
      <point x="1019" y="76" type="curve" smooth="yes"/>
      <point x="1019" y="90"/>
      <point x="1009" y="98"/>
      <point x="999" y="98" type="curve" smooth="yes"/>
    </contour>
    <contour>
      <point x="173" y="3"/>
      <point x="131" y="98"/>
      <point x="131" y="198" type="curve" smooth="yes"/>
      <point x="131" y="469"/>
      <point x="371" y="675"/>
      <point x="616" y="602" type="curve"/>
      <point x="501" y="214" type="line" smooth="yes"/>
      <point x="471" y="111"/>
      <point x="415" y="3"/>
      <point x="290" y="3" type="curve" smooth="yes"/>
    </contour>
    <contour>
      <point x="925" y="-87" type="move" name="ogonek"/>
    </contour>
    <contour>
      <point x="658" y="658" type="move" name="top"/>
    </contour>
    <contour>
      <point x="905" y="-83" type="move" name="bot"/>
    </contour>
  </outline>
</glyph>
<glyph name="germandbls" format="1">
  <advance width="438"/>
  <unicode hex="00DF"/>
  <outline>
    <contour>
      <point x="65" y="-44" type="curve" smooth="yes"/>
      <point x="87" y="-44"/>
      <point x="103" y="-33"/>
      <point x="103" y="-13" type="curve" smooth="yes"/>
      <point x="103" y="8"/>
      <point x="103" y="29"/>
      <point x="103" y="54" type="curve" smooth="yes"/>
      <point x="103" y="223"/>
      <point x="104" y="490"/>
      <point x="286" y="490" type="curve" smooth="yes"/>
      <point x="332" y="490"/>
      <point x="375" y="471"/>
      <point x="375" y="421" type="curve" smooth="yes"/>
      <point x="375" y="349"/>
      <point x="284" y="311"/>
      <point x="214" y="311" type="curve" smooth="yes"/>
      <point x="191" y="311"/>
      <point x="188" y="302"/>
      <point x="188" y="289" type="curve" smooth="yes"/>
      <point x="188" y="275"/>
      <point x="195" y="269"/>
      <point x="206" y="264" type="curve" smooth="yes"/>
      <point x="254" y="243"/>
      <point x="365" y="256"/>
      <point x="365" y="167" type="curve" smooth="yes"/>
      <point x="365" y="101"/>
      <point x="291" y="59"/>
      <point x="216" y="62" type="curve" smooth="yes"/>
      <point x="178" y="64"/>
      <point x="166" y="64"/>
      <point x="166" y="37" type="curve" smooth="yes"/>
      <point x="166" y="15"/>
      <point x="180" y="12"/>
      <point x="234" y="11" type="curve" smooth="yes"/>
      <point x="334" y="10"/>
      <point x="421" y="79"/>
      <point x="421" y="155" type="curve" smooth="yes"/>
      <point x="421" y="234"/>
      <point x="377" y="277"/>
      <point x="281" y="285" type="curve"/>
      <point x="367" y="287"/>
      <point x="432" y="343"/>
      <point x="432" y="424" type="curve" smooth="yes"/>
      <point x="432" y="496"/>
      <point x="364" y="536"/>
      <point x="285" y="536" type="curve" smooth="yes"/>
      <point x="258" y="536"/>
      <point x="234" y="532"/>
      <point x="213" y="523" type="curve" smooth="yes"/>
      <point x="52" y="458"/>
      <point x="32" y="207"/>
      <point x="32" y="-23" type="curve" smooth="yes"/>
      <point x="32" y="-37"/>
      <point x="47" y="-44"/>
    </contour>
  </outline>
</glyph>
<glyph name="Hbar" format="1">
  <advance width="678"/>
  <unicode hex="0126"/>
  <outline>
    <contour>
      <point x="90" y="402" type="curve" smooth="yes"/>
      <point x="604" y="426" type="line" smooth="yes"/>
      <point x="629" y="427"/>
      <point x="626" y="462"/>
      <point x="605" y="461" type="curve" smooth="yes"/>
      <point x="89" y="434" type="line" smooth="yes"/>
      <point x="64" y="432"/>
      <point x="73" y="401"/>
    </contour>
    <component base="H"/>
  </outline>
</glyph>
<glyph name="dotlessi" format="1">
  <advance width="183"/>
  <unicode hex="0131"/>
  <outline>
    <contour>
      <point x="122" y="0" type="curve" smooth="yes"/>
      <point x="171" y="-6"/>
      <point x="231" y="21"/>
      <point x="283" y="83" type="curve"/>
      <point x="290" y="92"/>
      <point x="291" y="96"/>
      <point x="292" y="101" type="curve" smooth="yes"/>
      <point x="292" y="111"/>
      <point x="282" y="120"/>
      <point x="270" y="120" type="curve" smooth="yes"/>
      <point x="266" y="119"/>
      <point x="262" y="116"/>
      <point x="260" y="113" type="curve" smooth="yes"/>
      <point x="178" y="20"/>
      <point x="105" y="21"/>
      <point x="105" y="100" type="curve" smooth="yes"/>
      <point x="105" y="150"/>
      <point x="147" y="259"/>
      <point x="172" y="308" type="curve" smooth="yes"/>
      <point x="178" y="318"/>
      <point x="165" y="326"/>
      <point x="152" y="326" type="curve" smooth="yes"/>
      <point x="132" y="326"/>
      <point x="122" y="323"/>
      <point x="110" y="301" type="curve" smooth="yes"/>
      <point x="83" y="250"/>
      <point x="48" y="147"/>
      <point x="48" y="88" type="curve" smooth="yes"/>
      <point x="48" y="40"/>
      <point x="78" y="7"/>
    </contour>
    <contour>
      <point x="172" y="333" type="move" name="top"/>
    </contour>
  </outline>
</glyph>
<glyph name="IJ" format="1">
  <advance width="816"/>
  <unicode hex="0132"/>
  <outline>
    <contour>
      <point x="518" y="-147" type="curve" smooth="yes"/>
      <point x="664" y="-135"/>
      <point x="790" y="299"/>
      <point x="831" y="602" type="curve"/>
      <point x="865" y="600"/>
      <point x="898" y="600"/>
      <point x="936" y="600" type="curve" smooth="yes"/>
      <point x="1004" y="600"/>
      <point x="1009" y="609"/>
      <point x="1009" y="624" type="curve" smooth="yes"/>
      <point x="1010" y="640"/>
      <point x="998" y="653"/>
      <point x="985" y="651" type="curve"/>
      <point x="942" y="651"/>
      <point x="891" y="652"/>
      <point x="836" y="654" type="curve"/>
      <point x="835" y="664"/>
      <point x="831" y="667"/>
      <point x="821" y="667" type="curve" smooth="yes"/>
      <point x="808" y="667"/>
      <point x="802" y="667"/>
      <point x="798" y="656" type="curve"/>
      <point x="691" y="661"/>
      <point x="581" y="667"/>
      <point x="506" y="667" type="curve"/>
      <point x="271" y="672"/>
      <point x="179" y="657"/>
      <point x="154" y="645" type="curve" smooth="yes"/>
      <point x="140" y="637"/>
      <point x="147" y="596"/>
      <point x="159" y="598" type="curve" smooth="yes"/>
      <point x="209" y="607"/>
      <point x="282" y="607"/>
      <point x="299" y="610" type="curve"/>
      <point x="236" y="444"/>
      <point x="177" y="213"/>
      <point x="138" y="35" type="curve"/>
      <point x="120" y="34"/>
      <point x="18" y="32"/>
      <point x="13" y="13" type="curve" smooth="yes"/>
      <point x="8" y="-6"/>
      <point x="16" y="-20"/>
      <point x="25" y="-23" type="curve" smooth="yes"/>
      <point x="37" y="-27"/>
      <point x="200" y="-8"/>
      <point x="301" y="-4" type="curve" smooth="yes"/>
      <point x="336" y="-2"/>
      <point x="326" y="43"/>
      <point x="304" y="43" type="curve" smooth="yes"/>
      <point x="196" y="39" type="line"/>
      <point x="223" y="170"/>
      <point x="320" y="500"/>
      <point x="352" y="613" type="curve"/>
      <point x="362" y="614"/>
      <point x="378" y="615"/>
      <point x="396" y="617" type="curve"/>
      <point x="535" y="617"/>
      <point x="628" y="612"/>
      <point x="709" y="608" type="curve" smooth="yes"/>
      <point x="736" y="606"/>
      <point x="761" y="605"/>
      <point x="786" y="604" type="curve"/>
      <point x="751" y="427"/>
      <point x="629" y="-100"/>
      <point x="497" y="-100" type="curve" smooth="yes"/>
      <point x="453" y="-100"/>
      <point x="438" y="-38"/>
      <point x="432" y="13" type="curve" smooth="yes"/>
      <point x="428" y="39"/>
      <point x="385" y="42"/>
      <point x="388" y="9" type="curve" smooth="yes"/>
      <point x="395" y="-89"/>
      <point x="429" y="-155"/>
    </contour>
  </outline>
</glyph>
<glyph name="kgreenlandic" format="1">
  <advance width="419"/>
  <unicode hex="0138"/>
  <outline>
    <contour>
      <point x="298" y="-3" type="curve" smooth="yes"/>
      <point x="354" y="-3"/>
      <point x="431" y="36"/>
      <point x="487" y="120" type="curve" smooth="yes"/>
      <point x="498" y="136"/>
      <point x="490" y="161"/>
      <point x="474" y="161" type="curve" smooth="yes"/>
      <point x="474" y="161"/>
      <point x="395" y="42"/>
      <point x="309" y="42" type="curve" smooth="yes"/>
      <point x="292" y="42"/>
      <point x="279" y="53"/>
      <point x="280" y="71" type="curve"/>
      <point x="287" y="132"/>
      <point x="416" y="166"/>
      <point x="408" y="262" type="curve" smooth="yes"/>
      <point x="404" y="304"/>
      <point x="378" y="329"/>
      <point x="337" y="329" type="curve" smooth="yes"/>
      <point x="285" y="329"/>
      <point x="244" y="310"/>
      <point x="96" y="74" type="curve"/>
      <point x="96" y="107"/>
      <point x="100" y="162"/>
      <point x="106" y="209" type="curve"/>
      <point x="250" y="319"/>
      <point x="295" y="417"/>
      <point x="191" y="417" type="curve" smooth="yes"/>
      <point x="77" y="417"/>
      <point x="66" y="249"/>
      <point x="50" y="112" type="curve"/>
      <point x="50" y="8"/>
      <point x="63" y="-3"/>
      <point x="77" y="-3" type="curve" smooth="yes"/>
      <point x="125" y="-3"/>
      <point x="242" y="273"/>
      <point x="321" y="280" type="curve" smooth="yes"/>
      <point x="351" y="282"/>
      <point x="356" y="258"/>
      <point x="356" y="243" type="curve" smooth="yes"/>
      <point x="356" y="199"/>
      <point x="224" y="138"/>
      <point x="224" y="61" type="curve" smooth="yes"/>
      <point x="224" y="6"/>
      <point x="265" y="-3"/>
    </contour>
    <contour>
      <point x="110" y="259" type="curve"/>
      <point x="120" y="316"/>
      <point x="150" y="376"/>
      <point x="188" y="374" type="curve" smooth="yes"/>
      <point x="224" y="372"/>
      <point x="142" y="283"/>
    </contour>
  </outline>
</glyph>
<glyph name="Lslash" format="1">
  <advance width="622"/>
  <unicode hex="0141"/>
  <outline>
    <contour>
      <point x="558" y="236" type="line" smooth="yes"/>
      <point x="567" y="239"/>
      <point x="570" y="245"/>
      <point x="571" y="251" type="curve" smooth="yes"/>
      <point x="573" y="262"/>
      <point x="565" y="272"/>
      <point x="553" y="272" type="curve" smooth="yes"/>
      <point x="550" y="272"/>
      <point x="547" y="271"/>
      <point x="543" y="270" type="curve" smooth="yes"/>
      <point x="315" y="191" type="line" smooth="yes"/>
      <point x="307" y="188"/>
      <point x="304" y="180"/>
      <point x="304" y="174" type="curve" smooth="yes"/>
      <point x="304" y="165"/>
      <point x="311" y="156"/>
      <point x="321" y="156" type="curve" smooth="yes"/>
      <point x="322" y="156"/>
      <point x="326" y="157"/>
      <point x="331" y="159" type="curve" smooth="yes"/>
    </contour>
    <component base="L"/>
  </outline>
</glyph>
<glyph name="Eng" format="1">
  <advance width="538"/>
  <unicode hex="014A"/>
  <outline>
    <contour>
      <point x="132" y="-310" type="curve" smooth="yes"/>
      <point x="252" y="-318"/>
      <point x="319" y="-198"/>
      <point x="374" y="-27" type="curve"/>
      <point x="451" y="18"/>
      <point x="486" y="46"/>
      <point x="537" y="66" type="curve"/>
      <point x="569" y="86"/>
      <point x="554" y="112"/>
      <point x="530" y="109" type="curve"/>
      <point x="478" y="88"/>
      <point x="445" y="55"/>
      <point x="386" y="19" type="curve"/>
      <point x="453" y="196"/>
      <point x="520" y="399"/>
      <point x="520" y="502" type="curve" smooth="yes"/>
      <point x="520" y="547"/>
      <point x="490" y="583"/>
      <point x="438" y="591" type="curve" smooth="yes"/>
      <point x="318" y="607"/>
      <point x="222" y="440"/>
      <point x="149" y="265" type="curve"/>
      <point x="162" y="337"/>
      <point x="177" y="424"/>
      <point x="173" y="482" type="curve" smooth="yes"/>
      <point x="168" y="541"/>
      <point x="152" y="578"/>
      <point x="104" y="583" type="curve" smooth="yes"/>
      <point x="55" y="588"/>
      <point x="17" y="549"/>
      <point x="-9" y="507" type="curve" smooth="yes"/>
      <point x="-28" y="475"/>
      <point x="0" y="457"/>
      <point x="20" y="481" type="curve" smooth="yes"/>
      <point x="52" y="522"/>
      <point x="71" y="540"/>
      <point x="92" y="541" type="curve" smooth="yes"/>
      <point x="113" y="541"/>
      <point x="122" y="519"/>
      <point x="124" y="493" type="curve" smooth="yes"/>
      <point x="131" y="384"/>
      <point x="94" y="169"/>
      <point x="42" y="23" type="curve" smooth="yes"/>
      <point x="37" y="9"/>
      <point x="43" y="-16"/>
      <point x="68" y="-16" type="curve" smooth="yes"/>
      <point x="82" y="-16"/>
      <point x="95" y="-7"/>
      <point x="99" y="9" type="curve" smooth="yes"/>
      <point x="166" y="248"/>
      <point x="340" y="543"/>
      <point x="420" y="540" type="curve" smooth="yes"/>
      <point x="457" y="538"/>
      <point x="458" y="510"/>
      <point x="458" y="482" type="curve" smooth="yes"/>
      <point x="458" y="401"/>
      <point x="391" y="179"/>
      <point x="325" y="-2" type="curve"/>
      <point x="238" y="-58"/>
      <point x="86" y="-152"/>
      <point x="77" y="-235" type="curve" smooth="yes"/>
      <point x="72" y="-276"/>
      <point x="86" y="-307"/>
    </contour>
    <contour>
      <point x="141" y="-266" type="curve" smooth="yes"/>
      <point x="123" y="-265"/>
      <point x="119" y="-247"/>
      <point x="120" y="-235" type="curve" smooth="yes"/>
      <point x="127" y="-180"/>
      <point x="233" y="-104"/>
      <point x="310" y="-51" type="curve"/>
      <point x="279" y="-135"/>
      <point x="230" y="-272"/>
    </contour>
  </outline>
</glyph>
<glyph name="eng" format="1">
  <advance width="363"/>
  <unicode hex="014B"/>
  <outline>
    <contour>
      <point x="271" y="32" type="curve"/>
      <point x="283" y="71" type="line" smooth="yes"/>
      <point x="292" y="108"/>
      <point x="323" y="222"/>
      <point x="346" y="289" type="curve" smooth="yes"/>
      <point x="351" y="305"/>
      <point x="337" y="328"/>
      <point x="304" y="328" type="curve" smooth="yes"/>
      <point x="267" y="328"/>
      <point x="166" y="265"/>
      <point x="91" y="77" type="curve"/>
      <point x="94" y="137"/>
      <point x="128" y="271"/>
      <point x="141" y="305" type="curve" smooth="yes"/>
      <point x="145" y="314"/>
      <point x="131" y="326"/>
      <point x="116" y="326" type="curve" smooth="yes"/>
      <point x="99" y="326"/>
      <point x="95" y="315"/>
      <point x="87" y="298" type="curve" smooth="yes"/>
      <point x="60" y="235"/>
      <point x="43" y="131"/>
      <point x="43" y="63" type="curve" smooth="yes"/>
      <point x="42" y="27"/>
      <point x="42" y="0"/>
      <point x="68" y="0" type="curve" smooth="yes"/>
      <point x="94" y="0"/>
      <point x="103" y="4"/>
      <point x="116" y="35" type="curve"/>
      <point x="173" y="194"/>
      <point x="271" y="275"/>
      <point x="282" y="269" type="curve" smooth="yes"/>
      <point x="294" y="261"/>
      <point x="254" y="136"/>
      <point x="239" y="80" type="curve"/>
      <point x="215" y="5" type="line"/>
      <point x="172" y="-26"/>
      <point x="115" y="-67"/>
      <point x="68" y="-111" type="curve" smooth="yes"/>
      <point x="21" y="-155"/>
      <point x="-17" y="-202"/>
      <point x="-20" y="-244" type="curve" smooth="yes"/>
      <point x="-23" y="-285"/>
      <point x="-7" y="-314"/>
      <point x="39" y="-314" type="curve" smooth="yes"/>
      <point x="99" y="-314"/>
      <point x="153" y="-277"/>
      <point x="180" y="-229" type="curve" smooth="yes"/>
      <point x="210" y="-175"/>
      <point x="233" y="-100"/>
      <point x="261" y="-12" type="curve"/>
      <point x="337" y="38"/>
      <point x="376" y="64"/>
      <point x="425" y="88" type="curve"/>
      <point x="457" y="109"/>
      <point x="440" y="135"/>
      <point x="417" y="130" type="curve"/>
      <point x="365" y="106"/>
      <point x="328" y="73"/>
    </contour>
    <contour>
      <point x="204" y="-44" type="curve"/>
      <point x="178" y="-130"/>
      <point x="136" y="-271"/>
      <point x="46" y="-271" type="curve" smooth="yes"/>
      <point x="28" y="-271"/>
      <point x="23" y="-253"/>
      <point x="23" y="-241" type="curve" smooth="yes"/>
      <point x="27" y="-185"/>
      <point x="130" y="-103"/>
    </contour>
  </outline>
</glyph>
<glyph name="dotlessj" format="1">
  <advance width="228"/>
  <unicode hex="0237"/>
  <outline>
    <contour>
      <point x="14" y="-92"/>
      <point x="21" y="-199"/>
      <point x="80" y="-208" type="curve" smooth="yes"/>
      <point x="157" y="-219"/>
      <point x="198" y="-116"/>
      <point x="199" y="-19" type="curve" smooth="yes"/>
      <point x="199" y="41"/>
      <point x="189" y="105"/>
      <point x="165" y="135" type="curve"/>
      <point x="241" y="141"/>
      <point x="314" y="149"/>
      <point x="314" y="205" type="curve" smooth="yes"/>
      <point x="314" y="213"/>
      <point x="313" y="216"/>
      <point x="306" y="212" type="curve"/>
      <point x="268" y="195"/>
      <point x="219" y="173"/>
      <point x="115" y="173" type="curve"/>
      <point x="151" y="254" type="line" smooth="yes"/>
      <point x="159" y="271"/>
      <point x="171" y="296"/>
      <point x="172" y="316" type="curve" smooth="yes"/>
      <point x="173" y="323"/>
      <point x="169" y="327"/>
      <point x="162" y="327" type="curve" smooth="yes"/>
      <point x="139" y="327"/>
      <point x="127" y="316"/>
      <point x="114" y="285" type="curve" smooth="yes"/>
      <point x="81" y="208"/>
      <point x="29" y="93"/>
      <point x="21" y="-1" type="curve" smooth="yes"/>
    </contour>
    <contour>
      <point x="154" y="-92"/>
      <point x="130" y="-166"/>
      <point x="95" y="-166" type="curve" smooth="yes"/>
      <point x="71" y="-166"/>
      <point x="63" y="-125"/>
      <point x="66" y="-47" type="curve" smooth="yes"/>
      <point x="70" y="33"/>
      <point x="98" y="124"/>
      <point x="109" y="155" type="curve"/>
      <point x="150" y="113"/>
      <point x="154" y="60"/>
      <point x="154" y="-7" type="curve" smooth="yes"/>
    </contour>
    <contour>
      <point x="166" y="333" type="move" name="top"/>
    </contour>
  </outline>
</glyph>
<glyph name="Delta" format="1">
  <advance width="687"/>
  <unicode hex="0394"/>
  <outline>
    <contour>
      <point x="141" y="-1" type="curve" smooth="yes"/>
      <point x="614" y="-1" type="line" smooth="yes"/>
      <point x="637" y="-1"/>
      <point x="646" y="11"/>
      <point x="646" y="34" type="curve"/>
      <point x="459" y="478" type="line" smooth="yes"/>
      <point x="447" y="506"/>
      <point x="420" y="516"/>
      <point x="400" y="483" type="curve" smooth="yes"/>
      <point x="331" y="368"/>
      <point x="259" y="251"/>
      <point x="202" y="161" type="curve" smooth="yes"/>
      <point x="161" y="94"/>
      <point x="128" y="45"/>
      <point x="119" y="25" type="curve"/>
      <point x="119" y="9"/>
      <point x="126" y="-1"/>
    </contour>
    <contour>
      <point x="185" y="55" type="line"/>
      <point x="202" y="76"/>
      <point x="352" y="327"/>
      <point x="419" y="439" type="curve"/>
      <point x="580" y="55" type="line"/>
    </contour>
  </outline>
</glyph>
<glyph name="Omega" format="1">
  <advance width="837"/>
  <unicode hex="03A9"/>
  <outline>
    <contour>
      <point x="623" y="37" type="curve"/>
      <point x="904" y="183"/>
      <point x="878" y="686"/>
      <point x="498" y="686" type="curve" smooth="yes"/>
      <point x="125" y="686"/>
      <point x="18" y="201"/>
      <point x="260" y="45" type="curve"/>
      <point x="205" y="47"/>
      <point x="168" y="49"/>
      <point x="139" y="47" type="curve" smooth="yes"/>
      <point x="125" y="47"/>
      <point x="122" y="34"/>
      <point x="124" y="21" type="curve" smooth="yes"/>
      <point x="126" y="11"/>
      <point x="140" y="-5"/>
      <point x="157" y="-6" type="curve" smooth="yes"/>
      <point x="218" y="-8"/>
      <point x="270" y="-4"/>
      <point x="410" y="-2" type="curve"/>
      <point x="412" y="40" type="line"/>
      <point x="61" y="73"/>
      <point x="154" y="628"/>
      <point x="496" y="628" type="curve" smooth="yes"/>
      <point x="837" y="628"/>
      <point x="839" y="73"/>
      <point x="483" y="40" type="curve"/>
      <point x="481" y="-2" type="line"/>
      <point x="590" y="-17"/>
      <point x="675" y="-21"/>
      <point x="738" y="-13" type="curve" smooth="yes"/>
      <point x="755" y="-10"/>
      <point x="770" y="4"/>
      <point x="773" y="14" type="curve" smooth="yes"/>
      <point x="776" y="27"/>
      <point x="774" y="42"/>
      <point x="760" y="41" type="curve" smooth="yes"/>
      <point x="726" y="38"/>
      <point x="683" y="34"/>
    </contour>
  </outline>
</glyph>
<glyph name="endash" format="1">
  <advance width="338"/>
  <unicode hex="2013"/>
  <outline>
    <contour>
      <point x="54" y="131" type="curve" smooth="yes"/>
      <point x="274" y="131" type="line" smooth="yes"/>
      <point x="304" y="131"/>
      <point x="317" y="148"/>
      <point x="317" y="177" type="curve" smooth="yes"/>
      <point x="317" y="201"/>
      <point x="300" y="208"/>
      <point x="276" y="208" type="curve" smooth="yes"/>
      <point x="64" y="208" type="line" smooth="yes"/>
      <point x="35" y="208"/>
      <point x="22" y="197"/>
      <point x="22" y="168" type="curve" smooth="yes"/>
      <point x="22" y="147"/>
      <point x="34" y="131"/>
    </contour>
  </outline>
</glyph>
<glyph name="quotedblleft" format="1">
  <advance width="350"/>
  <unicode hex="201C"/>
  <outline>
    <contour>
      <point x="261" y="631" type="curve" smooth="yes"/>
      <point x="252" y="632"/>
      <point x="246" y="625"/>
      <point x="242" y="614" type="curve" smooth="yes"/>
      <point x="224" y="567"/>
      <point x="191" y="489"/>
      <point x="191" y="437" type="curve" smooth="yes"/>
      <point x="191" y="417"/>
      <point x="203" y="408"/>
      <point x="223" y="408" type="curve" smooth="yes"/>
      <point x="244" y="408"/>
      <point x="254" y="416"/>
      <point x="254" y="438" type="curve" smooth="yes"/>
      <point x="254" y="504"/>
      <point x="270" y="600"/>
      <point x="271" y="615" type="curve" smooth="yes"/>
      <point x="272" y="623"/>
      <point x="271" y="629"/>
    </contour>
    <contour>
      <point x="139" y="631" type="curve" smooth="yes"/>
      <point x="131" y="632"/>
      <point x="124" y="625"/>
      <point x="120" y="614" type="curve" smooth="yes"/>
      <point x="102" y="567"/>
      <point x="70" y="489"/>
      <point x="70" y="437" type="curve" smooth="yes"/>
      <point x="70" y="417"/>
      <point x="82" y="408"/>
      <point x="102" y="408" type="curve" smooth="yes"/>
      <point x="122" y="408"/>
      <point x="133" y="416"/>
      <point x="133" y="438" type="curve" smooth="yes"/>
      <point x="133" y="504"/>
      <point x="148" y="600"/>
      <point x="150" y="615" type="curve" smooth="yes"/>
      <point x="150" y="623"/>
      <point x="149" y="629"/>
    </contour>
  </outline>
</glyph>
<glyph name="quotedblright" format="1">
  <advance width="404"/>
  <unicode hex="201D"/>
  <outline>
    <contour>
      <point x="118" y="408" type="curve" smooth="yes"/>
      <point x="126" y="407"/>
      <point x="133" y="414"/>
      <point x="137" y="425" type="curve" smooth="yes"/>
      <point x="155" y="471"/>
      <point x="188" y="549"/>
      <point x="188" y="602" type="curve" smooth="yes"/>
      <point x="188" y="622"/>
      <point x="175" y="631"/>
      <point x="155" y="631" type="curve" smooth="yes"/>
      <point x="135" y="631"/>
      <point x="125" y="623"/>
      <point x="125" y="601" type="curve" smooth="yes"/>
      <point x="125" y="534"/>
      <point x="108" y="439"/>
      <point x="107" y="423" type="curve" smooth="yes"/>
      <point x="106" y="416"/>
      <point x="108" y="410"/>
    </contour>
    <contour>
      <point x="240" y="408" type="curve" smooth="yes"/>
      <point x="248" y="407"/>
      <point x="254" y="414"/>
      <point x="258" y="425" type="curve" smooth="yes"/>
      <point x="276" y="471"/>
      <point x="309" y="549"/>
      <point x="309" y="602" type="curve" smooth="yes"/>
      <point x="309" y="622"/>
      <point x="297" y="631"/>
      <point x="277" y="631" type="curve" smooth="yes"/>
      <point x="257" y="631"/>
      <point x="246" y="623"/>
      <point x="246" y="601" type="curve" smooth="yes"/>
      <point x="246" y="534"/>
      <point x="230" y="439"/>
      <point x="229" y="423" type="curve" smooth="yes"/>
      <point x="228" y="416"/>
      <point x="229" y="410"/>
    </contour>
  </outline>
</glyph>
<glyph name="dagger" format="1">
  <advance width="394"/>
  <unicode hex="2020"/>
  <outline>
    <contour>
      <point x="180" y="-78" type="curve" smooth="yes"/>
      <point x="211" y="-78"/>
      <point x="210" y="-49"/>
      <point x="223" y="0" type="curve"/>
      <point x="290" y="284" type="line"/>
      <point x="393" y="284" type="line" smooth="yes"/>
      <point x="410" y="284"/>
      <point x="413" y="286"/>
      <point x="413" y="306" type="curve" smooth="yes"/>
      <point x="413" y="322"/>
      <point x="408" y="326"/>
      <point x="399" y="326" type="curve" smooth="yes"/>
      <point x="298" y="326" type="line"/>
      <point x="318" y="403"/>
      <point x="324" y="432"/>
      <point x="332" y="471" type="curve" smooth="yes"/>
      <point x="338" y="502"/>
      <point x="336" y="508"/>
      <point x="326" y="510" type="curve" smooth="yes"/>
      <point x="293" y="516"/>
      <point x="295" y="480"/>
      <point x="253" y="326" type="curve"/>
      <point x="159" y="326" type="line" smooth="yes"/>
      <point x="146" y="326"/>
      <point x="139" y="321"/>
      <point x="139" y="303" type="curve" smooth="yes"/>
      <point x="139" y="285"/>
      <point x="140" y="284"/>
      <point x="155" y="284" type="curve" smooth="yes"/>
      <point x="244" y="284" type="line"/>
      <point x="181" y="1"/>
      <point x="172" y="-23"/>
      <point x="171" y="-53" type="curve" smooth="yes"/>
      <point x="171" y="-64"/>
      <point x="176" y="-78"/>
    </contour>
  </outline>
</glyph>
<glyph name="perthousand" format="1">
  <advance width="1083"/>
  <unicode hex="2030"/>
  <outline>
    <contour>
      <point x="187" y="257" type="curve" smooth="yes"/>
      <point x="272" y="254"/>
      <point x="333" y="313"/>
      <point x="339" y="439" type="curve" smooth="yes"/>
      <point x="343" y="519"/>
      <point x="301" y="589"/>
      <point x="228" y="591" type="curve" smooth="yes"/>
      <point x="129" y="594"/>
      <point x="72" y="502"/>
      <point x="72" y="395" type="curve" smooth="yes"/>
      <point x="72" y="315"/>
      <point x="110" y="259"/>
    </contour>
    <contour>
      <point x="269" y="1" type="curve" smooth="yes"/>
      <point x="344" y="150"/>
      <point x="496" y="452"/>
      <point x="544" y="554" type="curve" smooth="yes"/>
      <point x="554" y="575"/>
      <point x="524" y="602"/>
      <point x="509" y="571" type="curve" smooth="yes"/>
      <point x="459" y="472"/>
      <point x="308" y="167"/>
      <point x="235" y="26" type="curve" smooth="yes"/>
      <point x="210" y="-24"/>
      <point x="251" y="-34"/>
    </contour>
    <contour>
      <point x="549" y="-3" type="curve" smooth="yes"/>
      <point x="634" y="-12"/>
      <point x="698" y="56"/>
      <point x="705" y="173" type="curve" smooth="yes"/>
      <point x="709" y="249"/>
      <point x="671" y="322"/>
      <point x="601" y="329" type="curve" smooth="yes"/>
      <point x="502" y="340"/>
      <point x="443" y="251"/>
      <point x="439" y="147" type="curve" smooth="yes"/>
      <point x="437" y="68"/>
      <point x="478" y="4"/>
    </contour>
    <contour>
      <point x="864" y="-6" type="curve" smooth="yes"/>
      <point x="950" y="-12"/>
      <point x="1012" y="58"/>
      <point x="1017" y="176" type="curve" smooth="yes"/>
      <point x="1020" y="251"/>
      <point x="981" y="323"/>
      <point x="911" y="328" type="curve" smooth="yes"/>
      <point x="813" y="335"/>
      <point x="754" y="245"/>
      <point x="752" y="141" type="curve" smooth="yes"/>
      <point x="750" y="62"/>
      <point x="794" y="-1"/>
    </contour>
    <contour>
      <point x="189" y="295" type="curve" smooth="yes"/>
      <point x="82" y="297"/>
      <point x="96" y="553"/>
      <point x="224" y="549" type="curve" smooth="yes"/>
      <point x="328" y="546"/>
      <point x="325" y="293"/>
    </contour>
    <contour>
      <point x="554" y="34" type="curve" smooth="yes"/>
      <point x="443" y="46"/>
      <point x="468" y="303"/>
      <point x="595" y="290" type="curve" smooth="yes"/>
      <point x="700" y="280"/>
      <point x="677" y="20"/>
    </contour>
    <contour>
      <point x="868" y="31" type="curve" smooth="yes"/>
      <point x="758" y="40"/>
      <point x="777" y="297"/>
      <point x="905" y="289" type="curve" smooth="yes"/>
      <point x="1010" y="283"/>
      <point x="993" y="21"/>
    </contour>
  </outline>
</glyph>
<glyph name="product" format="1">
  <advance width="783"/>
  <unicode hex="220F"/>
  <outline>
    <contour>
      <point x="147" y="603" type="curve" smooth="yes"/>
      <point x="128" y="600"/>
      <point x="132" y="555"/>
      <point x="147" y="557" type="curve" smooth="yes"/>
      <point x="198" y="566"/>
      <point x="220" y="570"/>
      <point x="340" y="569" type="curve"/>
      <point x="221" y="209"/>
      <point x="181" y="-12"/>
      <point x="188" y="-37" type="curve" smooth="yes"/>
      <point x="195" y="-63"/>
      <point x="228" y="-63"/>
      <point x="233" y="-33" type="curve" smooth="yes"/>
      <point x="239" y="6"/>
      <point x="278" y="192"/>
      <point x="375" y="569" type="curve"/>
      <point x="409" y="569"/>
      <point x="446" y="568"/>
      <point x="495" y="567" type="curve" smooth="yes"/>
      <point x="577" y="565"/>
      <point x="620" y="563"/>
      <point x="665" y="563" type="curve"/>
      <point x="572" y="188"/>
      <point x="568" y="-11"/>
      <point x="575" y="-37" type="curve" smooth="yes"/>
      <point x="581" y="-63"/>
      <point x="614" y="-63"/>
      <point x="619" y="-33" type="curve" smooth="yes"/>
      <point x="625" y="3"/>
      <point x="617" y="169"/>
      <point x="700" y="561" type="curve"/>
      <point x="727" y="560"/>
      <point x="820" y="562"/>
      <point x="847" y="564" type="curve" smooth="yes"/>
      <point x="855" y="565"/>
      <point x="868" y="610"/>
      <point x="844" y="610" type="curve" smooth="yes"/>
      <point x="478" y="610"/>
      <point x="332" y="627"/>
    </contour>
  </outline>
</glyph>
<glyph name="uni2219" format="1">
  <advance width="205"/>
  <unicode hex="2219"/>
  <outline>
    <contour>
      <point x="107" y="425" type="curve" smooth="yes"/>
      <point x="134" y="425"/>
      <point x="153" y="444"/>
      <point x="153" y="471" type="curve" smooth="yes"/>
      <point x="153" y="494"/>
      <point x="136" y="509"/>
      <point x="113" y="509" type="curve" smooth="yes"/>
      <point x="87" y="509"/>
      <point x="69" y="490"/>
      <point x="69" y="463" type="curve" smooth="yes"/>
      <point x="69" y="440"/>
      <point x="85" y="425"/>
    </contour>
  </outline>
</glyph>
<glyph name="radical" format="1">
  <advance width="601.218"/>
  <unicode hex="221A"/>
  <outline>
    <contour>
      <point x="358" y="171" type="line" smooth="yes"/>
      <point x="312" y="61"/>
      <point x="290" y="37"/>
      <point x="275" y="37" type="curve" smooth="yes"/>
      <point x="241" y="37"/>
      <point x="203" y="120"/>
      <point x="236" y="293" type="curve" smooth="yes"/>
      <point x="240" y="316"/>
      <point x="226" y="333"/>
      <point x="190" y="328" type="curve" smooth="yes"/>
      <point x="166" y="325"/>
      <point x="121" y="310"/>
      <point x="91" y="298" type="curve" smooth="yes"/>
      <point x="56" y="284"/>
      <point x="80" y="239"/>
      <point x="103" y="250" type="curve"/>
      <point x="131" y="264"/>
      <point x="154" y="274"/>
      <point x="185" y="284" type="curve"/>
      <point x="147" y="87"/>
      <point x="214" y="-7"/>
      <point x="276" y="-3" type="curve" smooth="yes"/>
      <point x="326" y="0"/>
      <point x="354" y="50"/>
      <point x="402" y="160" type="curve" smooth="yes"/>
      <point x="576" y="558" type="line" smooth="yes"/>
      <point x="595" y="601"/>
      <point x="552" y="636"/>
      <point x="527" y="576" type="curve" smooth="yes"/>
    </contour>
  </outline>
</glyph>
<glyph name="lessequal" format="1">
  <advance width="534"/>
  <unicode hex="2264"/>
  <outline>
    <contour>
      <point x="151" y="-1" type="curve" smooth="yes"/>
      <point x="369" y="-1" type="line" smooth="yes"/>
      <point x="423" y="-1"/>
      <point x="448" y="7"/>
      <point x="448" y="37" type="curve" smooth="yes"/>
      <point x="448" y="44"/>
      <point x="445" y="46"/>
      <point x="434" y="46" type="curve" smooth="yes"/>
      <point x="339" y="46" type="line" smooth="yes"/>
      <point x="306" y="46"/>
      <point x="249" y="42"/>
      <point x="172" y="46" type="curve" smooth="yes"/>
      <point x="141" y="47"/>
      <point x="111" y="44"/>
      <point x="111" y="27" type="curve" smooth="yes"/>
      <point x="111" y="6"/>
      <point x="124" y="-1"/>
    </contour>
    <component base="less" xOffset="79" yOffset="44"/>
  </outline>
</glyph>
<glyph name="greaterequal" format="1">
  <advance width="545"/>
  <unicode hex="2265"/>
  <outline>
    <contour>
      <point x="175" y="-1" type="curve" smooth="yes"/>
      <point x="393" y="-1" type="line" smooth="yes"/>
      <point x="447" y="-1"/>
      <point x="472" y="7"/>
      <point x="472" y="37" type="curve" smooth="yes"/>
      <point x="472" y="44"/>
      <point x="469" y="46"/>
      <point x="458" y="46" type="curve" smooth="yes"/>
      <point x="363" y="46" type="line" smooth="yes"/>
      <point x="330" y="46"/>
      <point x="273" y="42"/>
      <point x="196" y="46" type="curve" smooth="yes"/>
      <point x="165" y="47"/>
      <point x="135" y="44"/>
      <point x="135" y="27" type="curve" smooth="yes"/>
      <point x="135" y="6"/>
      <point x="147" y="-1"/>
    </contour>
    <component base="greater" xOffset="89" yOffset="58"/>
  </outline>
</glyph>
<glyph name="uniFB00" format="1">
  <advance width="476"/>
  <unicode hex="FB00"/>
  <outline>
    <contour>
      <point x="99" y="-196" type="curve" smooth="yes"/>
      <point x="180" y="-203"/>
      <point x="211" y="-124"/>
      <point x="213" y="-41" type="curve" smooth="yes"/>
      <point x="216" y="58"/>
      <point x="188" y="125"/>
      <point x="159" y="171" type="curve"/>
      <point x="193" y="159"/>
      <point x="253" y="158"/>
      <point x="283" y="172" type="curve"/>
      <point x="282" y="120"/>
      <point x="279" y="69"/>
      <point x="279" y="18" type="curve" smooth="yes"/>
      <point x="279" y="-63"/>
      <point x="292" y="-146"/>
      <point x="354" y="-146" type="curve" smooth="yes"/>
      <point x="427" y="-146"/>
      <point x="441" y="-76"/>
      <point x="441" y="-27" type="curve" smooth="yes"/>
      <point x="441" y="47"/>
      <point x="414" y="112"/>
      <point x="392" y="161" type="curve"/>
      <point x="470" y="157"/>
      <point x="579" y="163"/>
      <point x="579" y="247" type="curve"/>
      <point x="577" y="261" type="line"/>
      <point x="571" y="256"/>
      <point x="565" y="251"/>
      <point x="559" y="248" type="curve" smooth="yes"/>
      <point x="485" y="199"/>
      <point x="420" y="193"/>
      <point x="365" y="202" type="curve"/>
      <point x="436" y="248"/>
      <point x="564" y="393"/>
      <point x="564" y="504" type="curve" smooth="yes"/>
      <point x="564" y="546"/>
      <point x="542" y="573"/>
      <point x="505" y="573" type="curve" smooth="yes"/>
      <point x="382" y="573"/>
      <point x="314" y="376"/>
      <point x="287" y="206" type="curve"/>
      <point x="233" y="192"/>
      <point x="185" y="196"/>
      <point x="147" y="208" type="curve"/>
      <point x="213" y="284"/>
      <point x="333" y="422"/>
      <point x="333" y="555" type="curve" smooth="yes"/>
      <point x="333" y="597"/>
      <point x="311" y="624"/>
      <point x="274" y="624" type="curve" smooth="yes"/>
      <point x="93" y="624"/>
      <point x="28" y="176"/>
      <point x="28" y="-13" type="curve" smooth="yes"/>
      <point x="28" y="-94"/>
      <point x="37" y="-191"/>
    </contour>
    <contour>
      <point x="109" y="-147" type="curve" smooth="yes"/>
      <point x="83" y="-147"/>
      <point x="85" y="-74"/>
      <point x="85" y="-23" type="curve" smooth="yes"/>
      <point x="85" y="53"/>
      <point x="93" y="127"/>
      <point x="95" y="205" type="curve"/>
      <point x="125" y="158"/>
      <point x="160" y="77"/>
      <point x="160" y="-27" type="curve" smooth="yes"/>
      <point x="160" y="-29" type="line" smooth="yes"/>
      <point x="160" y="-67"/>
      <point x="159" y="-147"/>
    </contour>
    <contour>
      <point x="356" y="-100" type="curve" smooth="yes"/>
      <point x="324" y="-100"/>
      <point x="324" y="-5"/>
      <point x="324" y="73" type="curve"/>
      <point x="325" y="173" type="line"/>
      <point x="344" y="166" type="line"/>
      <point x="347" y="154"/>
      <point x="396" y="43"/>
      <point x="396" y="-33" type="curve" smooth="yes"/>
      <point x="396" y="-68"/>
      <point x="387" y="-100"/>
    </contour>
    <contour>
      <point x="117" y="226" type="curve"/>
      <point x="111" y="229"/>
      <point x="104" y="238"/>
      <point x="101" y="246" type="curve"/>
      <point x="101" y="266"/>
      <point x="163" y="571"/>
      <point x="251" y="571" type="curve" smooth="yes"/>
      <point x="273" y="571"/>
      <point x="277" y="546"/>
      <point x="277" y="526" type="curve" smooth="yes"/>
      <point x="277" y="433"/>
      <point x="171" y="292"/>
    </contour>
    <contour>
      <point x="329" y="213" type="curve"/>
      <point x="343" y="278"/>
      <point x="396" y="517"/>
      <point x="489" y="517" type="curve" smooth="yes"/>
      <point x="510" y="517"/>
      <point x="520" y="502"/>
      <point x="520" y="483" type="curve" smooth="yes"/>
      <point x="520" y="403"/>
      <point x="373" y="240"/>
    </contour>
  </outline>
</glyph>
